Coordinates
version=1
nRows=11
nColumns=46
inDegrees=yes

Units are S.I. units (second, meters, Newtons, ...)
Angles are in degrees.

endheader
time	pelvis_tilt	pelvis_list	pelvis_rotation	pelvis_tx	pelvis_ty	pelvis_tz	bb_angle	bb_tx	bb_ty	bb_tz	hip_flexion_r	hip_adduction_r	hip_rotation_r	knee_angle_r	knee_angle_r_beta	ankle_angle_r	subtalar_angle_r	mtp_angle_r	crank_angle_r	hip_flexion_l	hip_adduction_l	hip_rotation_l	knee_angle_l	knee_angle_l_beta	ankle_angle_l	subtalar_angle_l	mtp_angle_l	crank_angle_l	lumbar_extension	lumbar_bending	lumbar_rotation	arm_flex_r	arm_add_r	arm_rot_r	elbow_flex_r	pro_sup_r	wrist_flex_r	wrist_dev_r	arm_flex_l	arm_add_l	arm_rot_l	elbow_flex_l	pro_sup_l	wrist_flex_l	wrist_dev_l
      5.00500000	    -20.90620359	     -9.10917906	      4.59192186	      0.34963131	      1.14470701	     -0.26351799	      0.00000000	      0.50000000	      0.00000000	      0.25000000	     55.64679128	     -0.90785321	     -5.35859082	     93.91212489	      1.63907579	    -10.70894293	     -9.55487921	      0.00000000	      0.00000000	     49.26762948	     -4.40772356	     13.14651248	     45.38610647	      0.79213699	    -10.28989771	    -17.95857102	      0.00000000	      0.00000000	    -59.40798636	      4.41304389	     -3.17696974	     76.39159115	     -6.00813132	     51.67465201	     27.58791274	     47.19369316	      0.00000000	      0.00000000	     61.36403492	    -24.90670252	     34.26763243	     70.82518977	     49.37977162	      0.00000000	      0.00000000
      5.01000000	    -20.76542020	     -9.71440931	      4.24812094	      0.34956844	      1.14411958	     -0.26402940	      0.00000000	      0.50000000	      0.00000000	      0.25000000	     56.76605466	     -0.77343621	     -5.76752438	     95.84042089	      1.67273090	     -8.96795520	     -8.51547270	      0.00000000	      0.00000000	     47.83339989	     -5.46709684	     12.86224105	     43.31924315	      0.75606342	    -11.96323673	    -18.01599761	      0.00000000	      0.00000000	    -59.44883883	      4.72843422	     -2.69554006	     76.58659077	     -5.73477014	     52.00683856	     27.42628620	     47.21802324	      0.00000000	      0.00000000	     61.26816921	    -25.22226151	     34.25595435	     70.74705415	     49.36798365	      0.00000000	      0.00000000
      5.01500000	    -20.80806947	    -10.46118003	      3.92813159	      0.34927027	      1.14333194	     -0.26456777	      0.00000000	      0.50000000	      0.00000000	      0.25000000	     58.12696991	     -0.60999188	     -6.41972028	     97.60246763	      1.70348442	     -8.00211045	     -8.56879606	      0.00000000	      0.00000000	     46.67245583	     -6.60741379	     12.73794606	     41.41647263	      0.72285381	    -13.23117873	    -17.18290952	      0.00000000	      0.00000000	    -59.33458904	      5.21884717	     -2.06677482	     76.77269870	     -5.51137215	     52.07599390	     27.49364503	     47.23152437	      0.00000000	      0.00000000	     61.10347837	    -25.48568935	     34.24713364	     70.62440124	     49.34827085	      0.00000000	      0.00000000
      5.02000000	    -20.67509042	    -10.84189454	      3.54054684	      0.34922994	      1.14308699	     -0.26505922	      0.00000000	      0.50000000	      0.00000000	      0.25000000	     59.28852189	     -0.65662229	     -6.66274093	     99.33177929	      1.73366660	     -6.65087540	     -7.65424563	      0.00000000	      0.00000000	     45.15217992	     -7.56597159	     12.00375633	     39.32224941	      0.68630272	    -14.97192162	    -17.29840231	      0.00000000	      0.00000000	    -59.39042451	      5.42412309	     -1.86852833	     77.09539616	     -4.88988015	     52.78062081	     26.60434998	     47.20453694	      0.00000000	      0.00000000	     61.02844448	    -26.01165107	     34.41209924	     70.42509617	     49.34456840	      0.00000000	      0.00000000
      5.02500000	    -20.74784603	    -11.42358876	      3.15304946	      0.34897899	      1.14254737	     -0.26554110	      0.00000000	      0.50000000	      0.00000000	      0.25000000	     60.69228869	     -0.61322943	     -7.18307971	    100.86605580	      1.76044478	     -5.88321606	     -7.67879666	      0.00000000	      0.00000000	     43.98290850	     -8.66863522	     11.44973893	     37.48691741	      0.65427014	    -16.14237924	    -16.46396986	      0.00000000	      0.00000000	    -59.27786482	      5.77671961	     -1.32952254	     77.26794870	     -4.66088719	     52.92079674	     26.53450274	     47.21354536	      0.00000000	      0.00000000	     60.91730344	    -26.24393513	     34.43561881	     70.29982328	     49.33205250	      0.00000000	      0.00000000
      5.03000000	    -20.66308197	    -11.60410688	      2.63124618	      0.34898387	      1.14254547	     -0.26594251	      0.00000000	      0.50000000	      0.00000000	      0.25000000	     61.94957107	     -0.70428519	     -7.22832603	    102.32548254	      1.78591658	     -5.10168479	     -7.22394952	      0.00000000	      0.00000000	     42.43698964	     -9.58065945	     10.33704901	     35.57978741	      0.62098444	    -17.42032586	    -15.76111656	      0.00000000	      0.00000000	    -59.34527161	      5.73129511	     -1.09212605	     77.46080835	     -4.28516232	     53.28618747	     26.09246957	     47.20307667	      0.00000000	      0.00000000	     60.96739270	    -26.49444210	     34.56665230	     69.99969863	     49.30515723	      0.00000000	      0.00000000
      5.03500000	    -20.77560421	    -12.03940893	      2.32700839	      0.34874661	      1.14223148	     -0.26673554	      0.00000000	      0.50000000	      0.00000000	      0.25000000	     63.38857160	     -0.88932158	     -7.69019502	    103.60257590	      1.80820606	     -4.59777881	     -7.22145503	      0.00000000	      0.00000000	     41.25980786	    -10.43111720	      9.80394984	     33.90786036	      0.59180381	    -18.37919617	    -14.96669882	      0.00000000	      0.00000000	    -59.21744269	      6.11456731	     -0.66335203	     77.67127452	     -4.10561522	     53.38697829	     26.02953102	     47.20572006	      0.00000000	      0.00000000	     60.93791634	    -26.63873191	     34.61676101	     69.84801498	     49.28934604	      0.00000000	      0.00000000
      5.04000000	    -20.60416462	    -12.05292315	      1.81449904	      0.34890930	      1.14265911	     -0.26713389	      0.00000000	      0.50000000	      0.00000000	      0.25000000	     64.55912860	     -1.02837168	     -7.57628286	    104.83953506	      1.82979507	     -3.98005349	     -6.94126105	      0.00000000	      0.00000000	     39.53971815	    -11.17502129	      8.42347097	     32.10802338	      0.56039072	    -19.45450182	    -14.01290855	      0.00000000	      0.00000000	    -59.38597556	      5.97322599	     -0.48030252	     77.77273192	     -3.79688945	     53.69740950	     25.59949991	     47.18795206	      0.00000000	      0.00000000	     61.09556417	    -26.72141153	     34.83182612	     69.30920088	     49.23139013	      0.00000000	      0.00000000
      5.04500000	    -20.70557638	    -12.37001341	      1.52693561	      0.34872763	      1.14264126	     -0.26810507	      0.00000000	      0.50000000	      0.00000000	      0.25000000	     65.98618231	     -1.29529968	     -7.91422328	    105.88105272	      1.84797299	     -3.67731139	     -6.96279525	      0.00000000	      0.00000000	     38.33619839	    -11.91980486	      7.61648191	     30.56934573	      0.53353573	    -20.25913801	    -13.07236033	      0.00000000	      0.00000000	    -59.31075683	      6.36036583	     -0.09559131	     77.98892109	     -3.67116950	     53.76696315	     25.55180727	     47.18736426	      0.00000000	      0.00000000	     61.08795680	    -26.78588740	     34.91596947	     69.08933978	     49.20798177	      0.00000000	      0.00000000
      5.05000000	    -20.39333284	    -12.29210979	      1.01401035	      0.34901612	      1.14357105	     -0.26871905	      0.00000000	      0.50000000	      0.00000000	      0.25000000	     66.97769268	     -1.44418974	     -7.72578018	    106.82948645	      1.86452628	     -3.43069496	     -6.57997389	      0.00000000	      0.00000000	     36.42014657	    -12.56116905	      6.00471570	     28.87582281	      0.50397818	    -21.09121929	    -11.83343429	      0.00000000	      0.00000000	    -59.59402365	      6.11386957	      0.32508590	     78.13642154	     -3.68039389	     54.32684343	     24.94182971	     47.17951293	      0.00000000	      0.00000000	     61.75542384	    -26.29053367	     35.65035580	     67.52300353	     49.05770759	      0.00000000	      0.00000000
      5.05500000	    -20.40188655	    -12.39017126	      0.59455288	      0.34900071	      1.14392423	     -0.26951829	      0.00000000	      0.50000000	      0.00000000	      0.25000000	     68.30995167	     -1.66689288	     -7.80509274	    107.65574236	      1.87894716	     -3.36700824	     -6.47966503	      0.00000000	      0.00000000	     35.02672581	    -13.18985926	      4.70814844	     27.41212005	      0.47843175	    -21.89630608	    -10.65840041	      0.00000000	      0.00000000	    -59.60196714	      6.18325534	      0.62989082	     78.17388726	     -3.67485568	     54.40867522	     25.05262592	     47.20708561	      0.00000000	      0.00000000	     61.84473834	    -26.16670520	     35.69425840	     67.16375561	     49.01369266	      0.00000000	      0.00000000
